<svg width="71" height="81" viewBox="0 0 71 81" fill="none" xmlns="http://www.w3.org/2000/svg">
<path d="M0.500781 80V78.8L4.46078 77.6C5.90078 77.2 6.94078 76.44 7.58078 75.32C8.22078 74.12 8.54078 72.72 8.54078 71.12V13.4C7.66078 11.48 6.94078 10.04 6.38078 9.08C5.90078 8.12 5.34078 7.32 4.70078 6.68C4.06078 5.96 3.18078 5.08 2.06078 4.04L0.0207814 2V0.799997H21.2608L61.1008 55.16V9.91999C61.1008 8.32 60.8208 6.88 60.2608 5.6C59.7808 4.32 58.7408 3.48 57.1408 3.08L53.1808 2V0.799997H70.3408V2L67.1008 3.08C65.6608 3.55999 64.7808 4.4 64.4608 5.6C64.1408 6.8 63.9808 8.2 63.9808 9.8V80.36H57.2608L11.4208 17.36V71.12C11.4208 72.72 11.6608 74.08 12.1408 75.2C12.6208 76.32 13.6208 77.12 15.1408 77.6L18.7408 78.8V80H0.500781Z" fill="white"/>
</svg>
